<?xml version="1.0" encoding="utf-8"?>
<!-- Generator: Adobe Illustrator 16.0.0, SVG Export Plug-In . SVG Version: 6.00 Build 0)  -->
<!DOCTYPE svg PUBLIC "-//W3C//DTD SVG 1.1//EN" "http://www.w3.org/Graphics/SVG/1.1/DTD/svg11.dtd">
<svg version="1.1" id="Layer_1" xmlns="http://www.w3.org/2000/svg" xmlns:xlink="http://www.w3.org/1999/xlink" x="0px" y="0px"
	 width="198.43px" height="79.37px" viewBox="0 0 198.43 79.37" enable-background="new 0 0 198.43 79.37" xml:space="preserve">
<g>
	<g>
		<g>
			<path fill="#B92025" d="M58.575,20.337c-0.202,1.572-0.56,2.938-1.076,4.095c-0.516,1.157-1.138,2.148-1.868,2.972
				c-0.729,0.824-1.542,1.5-2.435,2.029c-0.894,0.528-1.818,0.943-2.773,1.245c-0.957,0.302-1.916,0.509-2.878,0.623
				c-0.962,0.114-1.884,0.17-2.765,0.17c-2.252,0-4.315-0.321-6.189-0.962c-1.875-0.642-3.529-1.604-4.962-2.887
				c-1.435-1.283-2.633-2.89-3.595-4.822c-0.962-1.931-1.651-4.18-2.066-6.746c0.289,0.101,0.597,0.195,0.925,0.283
				c0.327,0.088,0.653,0.163,0.981,0.227c0.227-2.554,0.894-4.796,2-6.728c1.107-1.931,2.545-3.547,4.312-4.849
				c1.768-1.302,3.812-2.283,6.133-2.944c2.321-0.66,4.814-0.99,7.482-0.99c1.22,0,2.525,0.063,3.916,0.188
				c1.39,0.126,2.884,0.334,4.482,0.623c-0.366,1.145-0.639,2.293-0.821,3.444c-0.182,1.15-0.274,2.299-0.274,3.443
				c0,1.208,0.095,2.403,0.283,3.585c-0.742-0.553-1.484-1.016-2.226-1.387c-0.743-0.371-1.469-0.667-2.18-0.887
				c-0.711-0.22-1.406-0.377-2.084-0.472c-0.68-0.094-1.328-0.142-1.944-0.142c-1.157,0-2.353,0.161-3.585,0.481
				c-1.233,0.321-2.4,0.79-3.5,1.406c-1.101,0.617-2.085,1.368-2.954,2.255c-0.868,0.887-1.516,1.903-1.943,3.047
				c0.516-0.075,1.013-0.172,1.49-0.292c0.479-0.119,0.95-0.255,1.416-0.406c-0.076,0.554-0.114,1.07-0.114,1.548
				c0,1.183,0.208,2.236,0.623,3.16c0.415,0.925,0.981,1.705,1.698,2.34s1.566,1.12,2.547,1.453c0.981,0.334,2.038,0.5,3.17,0.5
				c0.642,0,1.375-0.059,2.199-0.179c0.824-0.119,1.701-0.346,2.632-0.679c0.931-0.334,1.899-0.799,2.906-1.396
				C56.543,22.089,57.556,21.306,58.575,20.337z"/>
		</g>
		<g>
			<path fill="#B92025" d="M71.407,30.207c-1.144-0.202-2.157-0.349-3.038-0.443c-0.88-0.095-1.748-0.142-2.603-0.142
				c-1.611,0-3.504,0.232-5.681,0.698c0.943-2.189,1.677-4.422,2.198-6.699c0.522-2.277,0.783-4.629,0.783-7.057
				c0-1.485-0.1-2.973-0.302-4.463c-0.201-1.49-0.516-3.022-0.943-4.595c0.805,0.227,1.598,0.427,2.377,0.604
				c0.78,0.176,1.561,0.327,2.341,0.453c0.78,0.125,1.573,0.223,2.378,0.292s1.635,0.11,2.49,0.123
				c0.113,3.208,0.189,6.416,0.227,9.624c0.957-0.101,1.896-0.205,2.82-0.312c0.926-0.107,1.854-0.223,2.784-0.349
				c0.139-1.875,0.358-3.755,0.66-5.642c0.302-1.888,0.729-3.806,1.283-5.756c0.718,0.29,1.4,0.532,2.049,0.727
				c0.647,0.195,1.292,0.352,1.933,0.472c0.643,0.119,1.291,0.208,1.945,0.265c0.654,0.056,1.346,0.084,2.076,0.084h1.302
				c-0.716,1.371-1.312,2.749-1.783,4.132c-0.472,1.384-0.814,2.806-1.028,4.265c0.566-0.125,1.135-0.251,1.708-0.377
				c0.572-0.126,1.147-0.258,1.727-0.396c-0.227,1.384-0.34,2.824-0.34,4.321c0,0.717,0.027,1.438,0.085,2.161
				c0.056,0.724,0.142,1.431,0.254,2.123c-0.604-0.025-1.187-0.047-1.746-0.066c-0.561-0.019-1.123-0.047-1.688-0.085
				c0.137,0.931,0.318,1.862,0.537,2.793c0.22,0.931,0.494,1.868,0.821,2.812c-0.353-0.012-0.654-0.021-0.906-0.028
				c-0.251-0.006-0.476-0.013-0.67-0.019c-0.194-0.006-0.374-0.013-0.538-0.019c-0.163-0.006-0.326-0.01-0.49-0.01
				c-1.095,0-2.193,0.097-3.294,0.292c-1.101,0.195-2.304,0.482-3.613,0.859c-0.139-1.296-0.246-2.601-0.321-3.916
				c-0.075-1.314-0.113-2.657-0.113-4.028c-0.945-0.214-1.862-0.453-2.755-0.717c-0.895-0.264-1.793-0.541-2.699-0.83
				c-0.026,1.472-0.054,2.944-0.085,4.416S71.471,28.722,71.407,30.207z"/>
		</g>
		<g>
			<path fill="#B92025" d="M102.751,7.166c-0.366,2.101-0.636,4.224-0.812,6.369c-0.177,2.145-0.266,4.312-0.266,6.5
				c0,1.648,0.049,3.284,0.143,4.906c0.094,1.623,0.248,3.221,0.462,4.793c-0.466,0-0.938-0.019-1.416-0.057
				c-0.477-0.038-1.005-0.056-1.584-0.056c-1.032,0-2.095,0.063-3.188,0.188c-1.095,0.125-2.265,0.309-3.511,0.547
				c0.353-1.774,0.636-3.591,0.85-5.454c0.214-1.861,0.321-3.754,0.321-5.68c0-1.61-0.081-3.217-0.246-4.822
				c-0.164-1.604-0.42-3.204-0.773-4.802c0.829-0.088,1.635-0.205,2.416-0.349c0.78-0.145,1.572-0.318,2.376-0.52
				c0.806-0.201,1.637-0.43,2.492-0.688C100.869,7.786,101.781,7.493,102.751,7.166z"/>
		</g>
		<g>
			<path fill="#B92025" d="M136.681,8.864c-1.561,1.774-2.743,3.689-3.548,5.746c-0.805,2.057-1.208,4.28-1.208,6.67
				c0,1.258,0.106,2.529,0.32,3.812c0.214,1.284,0.548,2.585,1,3.907c-0.955,0.025-1.949,0.113-2.98,0.264
				c-0.881,0.138-1.857,0.342-2.927,0.613c-1.069,0.27-2.119,0.651-3.151,1.141c-0.793-2.063-1.768-4.032-2.925-5.906
				c-1.157-1.874-2.472-3.654-3.944-5.34c0.151,3.56-0.275,7.24-1.283,11.039c-2.289-0.717-4.39-1.076-6.303-1.076
				c-0.615,0-1.289,0.038-2.019,0.113c-0.729,0.076-1.51,0.183-2.34,0.321c1.573-1.774,2.771-3.692,3.594-5.755
				c0.825-2.063,1.237-4.321,1.237-6.774c0-0.793-0.051-1.613-0.152-2.463c-0.1-0.849-0.257-1.739-0.471-2.67
				c-0.78-0.591-1.563-1.161-2.349-1.708c-0.786-0.547-1.59-1.085-2.407-1.614c1.159,0.101,2.224,0.132,3.198,0.095
				c0.976-0.038,1.926-0.148,2.851-0.33c0.925-0.183,1.861-0.441,2.812-0.774c0.949-0.333,1.991-0.758,3.123-1.274l8.001,13.059
				c-0.075-0.604-0.126-1.208-0.151-1.812c-0.024-0.604-0.038-1.201-0.038-1.792c0-1.837,0.214-3.639,0.642-5.406
				s1.127-3.519,2.095-5.256c1.459,0.957,2.951,1.695,4.475,2.218C133.352,8.434,134.969,8.751,136.681,8.864z"/>
		</g>
		<g>
			<path fill="#B92025" d="M166.854,22.545c-0.529,0.251-1.052,0.494-1.566,0.726c-0.517,0.233-1.037,0.457-1.565,0.67
				c1.155,2.088,2.433,4.057,3.831,5.906c-1.95,0-3.814,0.192-5.588,0.576c-1.771,0.384-3.571,0.978-5.395,1.783
				c0.139-0.327,0.223-0.664,0.254-1.01c0.032-0.346,0.047-0.701,0.047-1.066c0-0.604-0.056-1.267-0.171-1.991
				c-0.112-0.723-0.283-1.481-0.509-2.274c-0.528,0.076-1.058,0.129-1.586,0.16c-0.526,0.032-1.043,0.048-1.546,0.048
				c-0.893,0-1.771-0.054-2.633-0.161s-1.688-0.286-2.48-0.538c-0.214,0.931-0.409,1.884-0.585,2.859
				c-0.177,0.975-0.353,1.978-0.529,3.01c-0.642-0.327-1.346-0.623-2.113-0.887c-0.654-0.214-1.411-0.415-2.274-0.604
				c-0.86-0.188-1.771-0.283-2.726-0.283c-0.817,0-1.686,0.069-2.604,0.207c-0.919,0.139-1.932,0.365-3.038,0.68
				c0.854-0.843,1.656-1.702,2.406-2.576c0.748-0.874,1.434-1.717,2.056-2.529c0.623-0.812,1.176-1.573,1.662-2.283
				c0.483-0.711,0.89-1.33,1.216-1.859c-0.364-0.44-0.7-0.912-1.01-1.415c-0.308-0.503-0.6-1.044-0.877-1.623
				c0.503,0.252,1,0.482,1.491,0.689c0.491,0.208,0.975,0.399,1.453,0.576c0.578-1.019,1.189-2.044,1.83-3.076
				c0.642-1.032,1.326-2.038,2.057-3.019c-0.15-0.365-0.343-0.78-0.575-1.246c-0.232-0.466-0.484-0.947-0.754-1.444
				c-0.272-0.497-0.559-0.99-0.86-1.481c-0.302-0.491-0.597-0.943-0.887-1.358c1.208,0.326,2.418,0.584,3.634,0.773
				c1.213,0.188,2.424,0.314,3.632,0.377c0.692-0.566,1.415-1.085,2.169-1.557c0.757-0.472,1.549-0.89,2.378-1.254
				c-0.263,0.439-0.521,0.893-0.774,1.358c-0.251,0.465-0.497,0.937-0.734,1.415c0.627-0.062,1.263-0.135,1.904-0.217
				c0.642-0.082,1.31-0.191,2.003-0.33c0.465,1.698,0.974,3.353,1.528,4.963c0.552,1.61,1.149,3.195,1.791,4.755
				c0.555-0.314,1.104-0.639,1.653-0.972c0.546-0.333,1.089-0.695,1.629-1.085c0.391,1.321,0.812,2.535,1.266,3.642
				C165.816,20.69,166.313,21.677,166.854,22.545z M154.21,20.545c-0.439-0.982-0.922-1.972-1.442-2.973
				c-0.522-1-1.086-2.009-1.69-3.029c-0.741,1.988-1.421,4.102-2.037,6.341c0.227,0.025,0.449,0.038,0.67,0.038
				c0.22,0,0.443,0,0.671,0c0.642,0,1.28-0.028,1.913-0.084C152.93,20.781,153.568,20.683,154.21,20.545z"/>
		</g>
		<g>
			<path fill="#B92025" d="M38.752,63.125c0.039,0.277,0.06,0.551,0.066,0.812c0.006,0.266,0.01,0.523,0.01,0.775
				c0,1.32-0.205,2.559-0.613,3.719c-0.409,1.154-0.973,2.219-1.689,3.186c-0.717,0.971-1.563,1.838-2.539,2.607
				c-0.975,0.766-2.035,1.412-3.18,1.941c-1.145,0.527-2.342,0.934-3.594,1.217s-2.506,0.424-3.765,0.424
				c-1.183,0-2.321-0.049-3.416-0.15c-1.094-0.102-2.132-0.15-3.114-0.15c-0.755,0-1.466,0.053-2.132,0.16
				c-0.667,0.105-1.283,0.326-1.849,0.652c-0.465-1.725-0.959-3.289-1.481-4.689c-0.522-1.404-1.003-2.602-1.444-3.594
				c-0.516-1.16-1.032-2.197-1.547-3.115c1.497,0.779,2.997,1.395,4.5,1.85c1.504,0.453,2.935,0.803,4.294,1.049
				c1.358,0.242,2.597,0.4,3.717,0.471c1.12,0.068,2.051,0.104,2.793,0.104c0.831,0,1.667-0.053,2.51-0.15
				c0.842-0.102,1.692-0.26,2.547-0.475c-0.214-0.287-0.435-0.545-0.661-0.773c-0.227-0.225-0.434-0.408-0.623-0.547
				c-0.227-0.164-0.446-0.299-0.66-0.416c-0.365-0.176-0.859-0.346-1.481-0.516c-0.623-0.172-1.315-0.355-2.076-0.559
				c-0.761-0.203-1.572-0.422-2.434-0.658c-0.862-0.24-1.717-0.518-2.566-0.832c-0.85-0.316-1.661-0.674-2.434-1.076
				c-0.774-0.4-1.463-0.859-2.067-1.377c-0.478-0.414-0.874-0.865-1.189-1.35c-0.314-0.482-0.562-0.98-0.745-1.49
				c-0.182-0.51-0.314-1.018-0.396-1.529c-0.082-0.508-0.129-0.996-0.142-1.463c-0.44,0.178-0.836,0.348-1.189,0.51
				c-0.353,0.164-0.654,0.303-0.906,0.416l-0.755,0.379c0.453-1.359,1.085-2.561,1.897-3.607c0.811-1.041,1.723-1.947,2.736-2.717
				c1.013-0.766,2.094-1.414,3.246-1.941c1.151-0.529,2.293-0.963,3.425-1.303c2.642-0.793,5.504-1.246,8.585-1.359
				c0.957,0,1.976-0.037,3.057-0.113c0.931-0.062,1.995-0.16,3.189-0.293c1.196-0.131,2.453-0.322,3.774-0.574
				c-0.402,0.604-0.727,1.258-0.972,1.963c-0.246,0.703-0.438,1.414-0.576,2.131c-0.139,0.719-0.232,1.426-0.283,2.123
				c-0.05,0.699-0.075,1.338-0.075,1.918c0,0.389,0.006,0.738,0.019,1.055c0.012,0.314,0.031,0.586,0.056,0.811
				c0.025,0.266,0.057,0.504,0.095,0.717c-2.202-0.994-4.346-1.688-6.435-2.084c-2.088-0.395-4.108-0.596-6.058-0.596
				c-0.667,0-1.302,0.023-1.906,0.068c-0.604,0.043-1.207,0.104-1.811,0.178c0.138,0.605,0.387,1.107,0.745,1.51
				c0.359,0.404,0.72,0.73,1.085,0.982c0.428,0.289,0.886,0.514,1.377,0.678c0.956,0.305,1.994,0.672,3.113,1.104
				c1.12,0.434,2.239,0.973,3.359,1.613c1.12,0.645,2.195,1.398,3.227,2.266c1.031,0.869,1.937,1.875,2.717,3.02
				c0.478-0.402,0.943-0.848,1.396-1.33C37.941,64.219,38.362,63.691,38.752,63.125z"/>
		</g>
		<g>
			<path fill="#B92025" d="M69.435,53.617c0,3.848-0.369,7.234-1.104,10.162c-0.735,2.924-1.83,5.371-3.284,7.338
				c-1.453,1.971-3.255,3.453-5.406,4.453c-2.151,1.002-4.642,1.502-7.473,1.502c-0.742,0-1.497-0.045-2.265-0.133
				c-0.767-0.09-1.547-0.219-2.34-0.395c0.151-0.076,0.314-0.178,0.491-0.305c0.151-0.102,0.324-0.223,0.52-0.367
				c0.194-0.145,0.399-0.311,0.613-0.5c-1.321-0.416-2.492-1.086-3.51-2.01c-1.019-0.926-1.872-2.049-2.557-3.379
				c-0.685-1.326-1.205-2.828-1.557-4.51c-0.352-1.678-0.528-3.479-0.528-5.406c0-0.465,0.009-0.887,0.028-1.262
				c0.02-0.379,0.048-0.754,0.085-1.133s0.084-0.771,0.142-1.18c0.056-0.41,0.123-0.877,0.198-1.406
				c0.302,0.025,0.623,0.051,0.962,0.074c0.29,0.027,0.623,0.047,1,0.059c0.377,0.012,0.767,0.018,1.17,0.018
				c0.528,0,1.106-0.018,1.736-0.055c0.629-0.039,1.292-0.105,1.991-0.199c0.699-0.094,1.421-0.229,2.17-0.406
				c0.749-0.176,1.507-0.408,2.274-0.697c-0.465,1.068-0.874,2.047-1.227,2.936c-0.352,0.887-0.644,1.727-0.877,2.527
				c-0.233,0.797-0.405,1.572-0.519,2.32c-0.113,0.748-0.169,1.508-0.169,2.273c0,1.297,0.157,2.502,0.472,3.615
				c0.314,1.111,0.799,2.135,1.453,3.064l0.095-0.566c0.88,0.229,1.572,0.342,2.076,0.342c0.755,0,1.428-0.139,2.019-0.416
				c0.591-0.277,1.106-0.645,1.547-1.104c0.44-0.459,0.817-0.992,1.132-1.596c0.315-0.604,0.566-1.232,0.755-1.887
				c0.189-0.652,0.327-1.311,0.416-1.971c0.088-0.66,0.132-1.287,0.132-1.877c0-0.518-0.065-1.104-0.198-1.766
				c-0.132-0.658-0.312-1.352-0.538-2.074c-0.226-0.727-0.488-1.453-0.783-2.191c-0.295-0.736-0.613-1.441-0.953-2.123
				c0.516,0.152,1.082,0.291,1.698,0.416c0.616,0.127,1.245,0.236,1.887,0.33c0.642,0.096,1.287,0.168,1.935,0.219
				c0.648,0.049,1.267,0.074,1.859,0.074c0.741,0,1.486-0.057,2.235-0.17C67.984,54.145,68.718,53.932,69.435,53.617z"/>
		</g>
		<g>
			<path fill="#B92025" d="M98.872,68.58c-0.137,1.018-0.433,1.949-0.887,2.783c-0.452,0.838-1.013,1.586-1.679,2.246
				c-0.667,0.66-1.409,1.236-2.227,1.727c-0.817,0.492-1.667,0.896-2.548,1.217c-0.88,0.32-1.764,0.561-2.651,0.717
				c-0.887,0.158-1.727,0.236-2.52,0.236c-2.037,0-3.905-0.26-5.604-0.783c-1.697-0.521-3.198-1.305-4.5-2.348
				c-1.302-1.047-2.387-2.35-3.255-3.916s-1.491-3.395-1.868-5.484c0.289,0.102,0.575,0.191,0.858,0.266
				c0.283,0.076,0.563,0.145,0.839,0.209c0.227-2.025,0.839-3.805,1.84-5.342c1-1.535,2.293-2.814,3.877-3.842
				c1.585-1.021,3.416-1.797,5.491-2.318c2.076-0.523,4.315-0.783,6.718-0.783c1.107,0,2.29,0.049,3.547,0.15
				c1.258,0.102,2.655,0.264,4.189,0.49c-0.315,0.908-0.54,1.814-0.679,2.729c-0.139,0.91-0.208,1.83-0.208,2.764
				c0,0.465,0.023,0.969,0.066,1.51c0.043,0.539,0.136,1.17,0.273,1.887c-0.805-0.541-1.572-0.994-2.301-1.359
				c-0.73-0.363-1.425-0.652-2.086-0.867c-0.66-0.213-1.286-0.365-1.876-0.453c-0.591-0.09-1.146-0.133-1.662-0.133
				c-0.968,0-1.964,0.125-2.99,0.367c-1.026,0.246-2,0.607-2.924,1.086c-0.924,0.477-1.755,1.064-2.492,1.754
				c-0.735,0.693-1.292,1.492-1.67,2.398c0.403-0.062,0.815-0.141,1.237-0.236s0.847-0.211,1.274-0.35
				c-0.064,0.277-0.104,0.533-0.123,0.773c-0.019,0.24-0.029,0.449-0.029,0.625c0,0.941,0.173,1.785,0.519,2.527
				c0.347,0.742,0.818,1.363,1.416,1.867c0.598,0.502,1.301,0.887,2.113,1.152c0.812,0.264,1.689,0.396,2.632,0.396
				c0.541,0,1.163-0.043,1.868-0.133c0.705-0.088,1.475-0.264,2.312-0.529c0.836-0.264,1.733-0.635,2.69-1.113
				C96.809,69.988,97.816,69.361,98.872,68.58z"/>
		</g>
		<g>
			<path fill="#B92025" d="M112.402,54.465c-0.491,3.209-0.774,6.416-0.85,9.623c1.874-1.52,3.613-3.215,5.217-5.086
				c1.605-1.865,3.124-3.895,4.559-6.084c1.207,1.283,2.515,2.377,3.925,3.285c1.409,0.904,2.913,1.664,4.508,2.283h0.076
				c-1.634,1.256-3.352,2.424-5.15,3.498c-1.799,1.078-3.636,2.012-5.51,2.803c1.259,1.924,2.695,3.699,4.311,5.322
				c1.617,1.621,3.351,3.158,5.2,4.604h-0.171c-3.333,0.629-6.579,1.768-9.735,3.414c-0.857-2.086-1.879-4.004-3.067-5.752
				c-1.189-1.752-2.589-3.322-4.198-4.719c0.024,1.396,0.075,2.791,0.15,4.189c0.076,1.396,0.184,2.791,0.32,4.188
				c-0.955,0.051-1.887,0.129-2.792,0.236c-0.906,0.107-1.809,0.246-2.708,0.416s-1.803,0.367-2.709,0.596
				c-0.905,0.225-1.842,0.477-2.811,0.754c1.812-5.285,2.717-10.693,2.717-16.23c0-1.32-0.059-2.664-0.179-4.027
				c-0.12-1.367-0.292-2.777-0.519-4.236c1.207,0.363,2.336,0.637,3.386,0.812c1.052,0.174,2.073,0.262,3.067,0.262
				c0.403,0,0.834-0.008,1.293-0.027C111.192,54.57,111.748,54.527,112.402,54.465z"/>
		</g>
		<g>
			<path fill="#B92025" d="M142.367,75.957c-1.296,0-2.461,0.004-3.492,0.012c-1.031,0.006-1.991,0.037-2.878,0.092
				c-0.887,0.059-1.729,0.145-2.528,0.268c-0.799,0.117-1.619,0.291-2.463,0.516c0.78-2.377,1.368-4.727,1.766-7.047
				c0.396-2.32,0.594-4.646,0.594-6.971c0-2.102-0.169-4.229-0.509-6.381c-0.78-0.113-1.555-0.205-2.321-0.283h-0.075l2.245-0.562
				l-0.396-1.908c0.743,0.213,1.473,0.408,2.189,0.586c0.716,0.176,1.445,0.332,2.188,0.473c2.113-0.391,4.243-0.689,6.387-0.898
				c2.146-0.207,4.318-0.311,6.52-0.311c0.97,0,1.941,0.025,2.915,0.076c0.977,0.049,2.022,0.111,3.144,0.188
				c-0.266,0.945-0.465,1.887-0.604,2.832c-0.139,0.941-0.208,1.912-0.208,2.906c0,0.301,0.008,0.65,0.028,1.047
				c0.018,0.395,0.058,0.826,0.121,1.291c-2.149-0.818-4.301-1.549-6.452-2.199c-2.151-0.646-4.34-1.211-6.567-1.688
				c-0.1,0.855-0.18,1.705-0.235,2.549c-0.057,0.84-0.104,1.689-0.142,2.545c1.068-0.199,2.161-0.35,3.273-0.441
				c1.113-0.096,2.273-0.156,3.481-0.18c-0.112,0.465-0.203,0.93-0.273,1.396c-0.069,0.465-0.104,0.943-0.104,1.432
				c0,0.732,0.112,1.555,0.34,2.475c-1.133-0.465-2.253-0.896-3.359-1.293c-1.106-0.398-2.227-0.754-3.358-1.064
				c0,1.016,0.019,2.076,0.056,3.178c0.038,1.102,0.107,2.205,0.208,3.311c2.151-0.289,4.315-0.676,6.491-1.158
				c2.177-0.486,4.392-1.08,6.642-1.785c-0.149,0.816-0.269,1.615-0.357,2.389c-0.087,0.771-0.134,1.512-0.134,2.217
				c0,1.332,0.153,2.699,0.454,4.094c-2.138-0.477-4.248-0.887-6.33-1.225c-2.083-0.342-4.192-0.619-6.332-0.832L142.367,75.957z"/>
		</g>
		<g>
			<path fill="#B92025" d="M187.391,75.033c-1.837,0.139-3.62,0.457-5.351,0.953c-1.728,0.496-3.487,1.18-5.273,2.049
				c-0.277-2.705-0.936-5.203-1.981-7.492c-0.503,0.113-1.012,0.201-1.529,0.264c-0.514,0.062-1.049,0.094-1.604,0.094
				c-0.214,0-0.425,0-0.633,0s-0.419-0.012-0.633-0.037c0.038,1.951,0.116,3.895,0.229,5.83c-0.404-0.062-0.806-0.104-1.208-0.121
				c-0.404-0.02-0.785-0.027-1.152-0.027c-1.245,0-2.609,0.141-4.095,0.424c-1.484,0.283-3.08,0.707-4.793,1.273
				c0.642-1.736,1.193-3.461,1.652-5.172c0.46-1.709,0.821-3.441,1.084-5.189c-0.855-0.566-1.587-1.117-2.196-1.66
				c-0.612-0.541-1.075-0.994-1.387-1.357c0.615,0.176,1.254,0.34,1.913,0.49c0.661,0.15,1.326,0.283,1.99,0.396
				c0.153-1.434,0.229-2.887,0.229-4.357v-0.699c-0.679,0.213-1.353,0.439-2.02,0.678c-0.668,0.24-1.335,0.504-2,0.793
				c0.391-1.258,0.584-2.422,0.584-3.49c0-0.893-0.112-1.74-0.338-2.537c-0.229-0.801-0.555-1.551-0.982-2.256
				c2.704-0.377,5.097-0.633,7.18-0.764c2.084-0.133,3.941-0.199,5.577-0.199c0.754,0,1.623,0.016,2.603,0.047
				c0.982,0.031,1.988,0.111,3.02,0.236c1.031,0.127,2.061,0.309,3.086,0.549c1.025,0.238,1.965,0.564,2.82,0.979
				c0.855,0.416,1.589,0.938,2.198,1.566c0.61,0.631,1.023,1.385,1.237,2.266c0.289-0.139,0.572-0.277,0.85-0.416
				s0.558-0.295,0.849-0.471c-0.152,0.904-0.404,1.809-0.757,2.707s-0.788,1.771-1.312,2.615c-0.521,0.84-1.124,1.641-1.809,2.395
				c-0.688,0.754-1.434,1.453-2.236,2.096C183.014,70.355,185.076,72.869,187.391,75.033z M174.597,58.674
				c-0.503,0-1.101,0.029-1.794,0.084c-0.69,0.057-1.445,0.123-2.263,0.199c-0.037,1.207-0.072,2.412-0.104,3.613
				c-0.032,1.203-0.05,2.393-0.05,3.574c0.758-0.111,1.468-0.297,2.133-0.555c0.667-0.26,1.26-0.594,1.774-1.01
				c0.517-0.414,0.941-0.922,1.273-1.518c0.336-0.598,0.552-1.301,0.65-2.107c0.479-0.074,0.968-0.148,1.465-0.225
				c0.497-0.074,1.003-0.164,1.517-0.264c-0.022,0-0.037-0.008-0.037-0.02v-0.02h0.037c-0.251-0.275-0.511-0.523-0.782-0.746
				c-0.27-0.219-0.581-0.404-0.934-0.555s-0.76-0.266-1.226-0.342C175.79,58.711,175.238,58.674,174.597,58.674z"/>
		</g>
	</g>
</g>
<polygon fill="#FEC20F" points="25.971,44.512 20.076,42.73 15.267,46.578 15.139,40.421 9.994,37.037 15.81,35.012 17.438,29.073 
	21.162,33.979 27.313,33.692 23.798,38.749 "/>
<polygon fill="#FEC20F" points="171.773,44.512 177.668,42.73 182.477,46.578 182.605,40.421 187.75,37.037 181.935,35.012 
	180.306,29.073 176.582,33.979 170.431,33.692 173.945,38.749 "/>
</svg>
